<svg width="20" height="20" viewBox="0 0 20 20" fill="none" xmlns="http://www.w3.org/2000/svg">
<g clip-path="url(#clip0_2_420)">
<path fill-rule="evenodd" clip-rule="evenodd" d="M18.0156 3.86953C17.819 3.41519 17.3701 3.12216 16.875 3.125H3.125C2.63073 3.12597 2.18345 3.41811 1.98388 3.8703C1.78431 4.32249 1.86994 4.84982 2.20234 5.21562L2.20859 5.22266L7.5 10.8727V16.875C7.49989 17.336 7.75349 17.7596 8.15983 17.9772C8.56618 18.1948 9.05933 18.1712 9.44297 17.9156L11.943 16.2484C12.291 16.0166 12.5001 15.626 12.5 15.2078V10.8727L17.7922 5.22266L17.7984 5.21562C18.1346 4.85125 18.2201 4.32113 18.0156 3.86953ZM11.5891 10.0219C11.3719 10.252 11.2507 10.5563 11.25 10.8727V15.2078L8.75 16.875V10.8727C8.75073 10.5551 8.62998 10.2493 8.4125 10.018L3.125 4.375H16.875L11.5891 10.0219Z" fill="#1C170D"/>
</g>
<defs>
<clipPath id="clip0_2_420">
<rect width="20" height="20" fill="white"/>
</clipPath>
</defs>
</svg>
