<svg width="11" height="21" viewBox="0 0 11 21" fill="none" xmlns="http://www.w3.org/2000/svg">
<path fill-rule="evenodd" clip-rule="evenodd" d="M10.7696 14.7745C10.9171 14.9259 11 15.1315 11 15.3459C11 15.5602 10.9171 15.7658 10.7696 15.9173L6.05575 20.7631C5.90839 20.9148 5.70843 21 5.49991 21C5.29139 21 5.09143 20.9148 4.94407 20.7631L0.230236 15.9173C-0.0767454 15.6017 -0.0767454 15.09 0.230236 14.7745C0.537218 14.4589 1.03493 14.4589 1.34192 14.7745L5.49991 19.0499L9.6579 14.7745C9.80526 14.6228 10.0052 14.5376 10.2137 14.5376C10.4223 14.5376 10.6222 14.6228 10.7696 14.7745ZM1.34192 6.22555L5.49991 1.95008L9.6579 6.22555C9.96488 6.54113 10.4626 6.54113 10.7696 6.22555C11.0766 5.90997 11.0766 5.39831 10.7696 5.08273L6.05575 0.236871C5.90839 0.0852141 5.70843 0 5.49991 0C5.29139 0 5.09143 0.0852141 4.94407 0.236871L0.230236 5.08273C-0.0767454 5.39831 -0.0767454 5.90997 0.230236 6.22555C0.537218 6.54113 1.03493 6.54113 1.34192 6.22555Z" fill="#A1824A"/>
</svg>
