<svg width="24" height="24" viewBox="0 0 24 24" fill="none" xmlns="http://www.w3.org/2000/svg">
<g clip-path="url(#clip0_18_173)">
<path fill-rule="evenodd" clip-rule="evenodd" d="M14.0306 12.9694C13.8899 12.8285 13.6991 12.7494 13.5 12.7494C13.3009 12.7494 13.1101 12.8285 12.9694 12.9694L11.25 14.6897L9.31031 12.75L11.0306 11.0306C11.3237 10.7376 11.3237 10.2624 11.0306 9.96937C10.7376 9.67632 10.2624 9.67632 9.96937 9.96937L8.25 11.6897L6.53062 9.96937C6.34105 9.7798 6.06474 9.70576 5.80578 9.77515C5.54681 9.84454 5.34454 10.0468 5.27515 10.3058C5.20576 10.5647 5.2798 10.8411 5.46938 11.0306L6.06469 11.625L3.87844 13.8103C3.31568 14.3729 2.99952 15.1361 2.99952 15.9319C2.99952 16.7276 3.31568 17.4908 3.87844 18.0534L4.38281 18.5569L1.71938 21.2194C1.5298 21.4089 1.45576 21.6853 1.52515 21.9442C1.59454 22.2032 1.79681 22.4055 2.05578 22.4748C2.31474 22.5442 2.59105 22.4702 2.78063 22.2806L5.44313 19.6172L5.94656 20.1216C6.50919 20.6843 7.27236 21.0005 8.06812 21.0005C8.86389 21.0005 9.62706 20.6843 10.1897 20.1216L12.375 17.9353L12.9694 18.5306C13.2624 18.8237 13.7376 18.8237 14.0306 18.5306C14.3237 18.2376 14.3237 17.7624 14.0306 17.4694L12.3103 15.75L14.0306 14.0306C14.1715 13.8899 14.2506 13.6991 14.2506 13.5C14.2506 13.3009 14.1715 13.1101 14.0306 12.9694ZM9.12844 19.0631C8.54273 19.6484 7.59352 19.6484 7.00781 19.0631L4.93969 16.9922C4.35436 16.4065 4.35436 15.4573 4.93969 14.8716L7.125 12.6853L11.3147 16.875L9.12844 19.0631ZM22.2806 1.71938C22.1399 1.57854 21.9491 1.49941 21.75 1.49941C21.5509 1.49941 21.3601 1.57854 21.2194 1.71938L18.5569 4.38281L18.0534 3.87844C16.8807 2.70912 14.983 2.70912 13.8103 3.87844L11.625 6.06469L11.0306 5.46938C10.8411 5.2798 10.5647 5.20576 10.3058 5.27515C10.0468 5.34454 9.84454 5.54681 9.77515 5.80578C9.70576 6.06474 9.7798 6.34105 9.96937 6.53062L17.4694 14.0306C17.7624 14.3237 18.2376 14.3237 18.5306 14.0306C18.8237 13.7376 18.8237 13.2624 18.5306 12.9694L17.9353 12.375L20.1216 10.1897C20.6843 9.62706 21.0005 8.86389 21.0005 8.06812C21.0005 7.27236 20.6843 6.50919 20.1216 5.94656L19.6172 5.44312L22.2806 2.78063C22.4215 2.63995 22.5006 2.44906 22.5006 2.25C22.5006 2.05094 22.4215 1.86005 22.2806 1.71938ZM19.0603 9.12562L16.875 11.3147L12.6853 7.125L14.8716 4.93969C15.4573 4.35436 16.4065 4.35436 16.9922 4.93969L19.0603 7.00219C19.3431 7.28369 19.5021 7.66628 19.5021 8.06531C19.5021 8.46435 19.3431 8.84693 19.0603 9.12844V9.12562Z" fill="#1C170D"/>
</g>
<defs>
<clipPath id="clip0_18_173">
<rect width="24" height="24" fill="white"/>
</clipPath>
</defs>
</svg>
