<svg width="20" height="20" viewBox="0 0 20 20" fill="none" xmlns="http://www.w3.org/2000/svg">
<g clip-path="url(#clip0_1_115)">
<path fill-rule="evenodd" clip-rule="evenodd" d="M15.625 5.90938V3.125C15.625 2.43464 15.0654 1.875 14.375 1.875H5.625C4.93464 1.875 4.375 2.43464 4.375 3.125V5.9375C4.37586 6.33074 4.56092 6.70087 4.875 6.9375L8.95859 10L4.875 13.0625C4.56092 13.2991 4.37586 13.6693 4.375 14.0625V16.875C4.375 17.5654 4.93464 18.125 5.625 18.125H14.375C15.0654 18.125 15.625 17.5654 15.625 16.875V14.0906C15.6241 13.6989 15.4407 13.3301 15.1289 13.093L11.0367 10L15.1289 6.90625C15.4408 6.66963 15.6243 6.30089 15.625 5.90938V5.90938ZM14.375 16.875H5.625V14.0625L10 10.7812L14.375 14.0898V16.875ZM14.375 5.90938L10 9.21875L5.625 5.9375V3.125H14.375V5.90938Z" fill="#1C170D"/>
</g>
<defs>
<clipPath id="clip0_1_115">
<rect width="20" height="20" fill="white"/>
</clipPath>
</defs>
</svg>
