<svg width="24" height="24" viewBox="0 0 24 24" fill="none" xmlns="http://www.w3.org/2000/svg">
<g clip-path="url(#clip0_1_77)">
<path fill-rule="evenodd" clip-rule="evenodd" d="M21.75 10.5C21.75 9.25736 20.7426 8.25 19.5 8.25H12.75V7.40625C14.0739 7.06236 14.9987 5.86788 15 4.5C15 1.875 12.5213 0.195937 12.4163 0.125625C12.1642 -0.0425247 11.8358 -0.0425247 11.5837 0.125625C11.4787 0.195937 9 1.875 9 4.5C9.00129 5.86788 9.92605 7.06236 11.25 7.40625V8.25H4.5C3.25736 8.25 2.25 9.25736 2.25 10.5V12.6872C2.25077 13.5054 2.51361 14.3018 3 14.9597V18.75C3 19.9926 4.00736 21 5.25 21H18.75C19.9926 21 21 19.9926 21 18.75V14.9597C21.4864 14.3018 21.7492 13.5054 21.75 12.6872V10.5ZM10.5 4.5C10.5 3.22781 11.4375 2.20688 12 1.70719C12.5625 2.20688 13.5 3.22781 13.5 4.5C13.5 5.32843 12.8284 6 12 6C11.1716 6 10.5 5.32843 10.5 4.5V4.5ZM3.75 10.5C3.75 10.0858 4.08579 9.75 4.5 9.75H19.5C19.9142 9.75 20.25 10.0858 20.25 10.5V12.6872C20.25 13.9294 19.2694 14.9663 18.0637 14.9991C17.4562 15.0163 16.8675 14.787 16.4317 14.3633C15.9959 13.9397 15.75 13.3578 15.75 12.75C15.75 12.3358 15.4142 12 15 12C14.5858 12 14.25 12.3358 14.25 12.75C14.25 13.9926 13.2426 15 12 15C10.7574 15 9.75 13.9926 9.75 12.75C9.75 12.3358 9.41421 12 9 12C8.58579 12 8.25 12.3358 8.25 12.75C8.25024 13.3579 8.00446 13.9401 7.56861 14.364C7.13277 14.7878 6.54395 15.0172 5.93625 15C4.73063 14.9662 3.75 13.9294 3.75 12.6872V10.5ZM18.75 19.5H5.25C4.83579 19.5 4.5 19.1642 4.5 18.75V16.1775C4.93902 16.3764 5.41322 16.4861 5.895 16.5C6.90782 16.5315 7.88968 16.1486 8.61375 15.4397C8.75366 15.3033 8.88279 15.1563 9 15C9.7082 15.9443 10.8197 16.5 12 16.5C13.1803 16.5 14.2918 15.9443 15 15C15.1176 15.1557 15.247 15.3021 15.3872 15.4378C16.0849 16.1212 17.0234 16.5027 18 16.5C18.0356 16.5 18.0712 16.5 18.1069 16.5C18.588 16.4858 19.0616 16.3762 19.5 16.1775V18.75C19.5 19.1642 19.1642 19.5 18.75 19.5V19.5Z" fill="#1C170D"/>
</g>
<defs>
<clipPath id="clip0_1_77">
<rect width="24" height="24" fill="white"/>
</clipPath>
</defs>
</svg>
