<svg width="24" height="24" viewBox="0 0 24 24" fill="none" xmlns="http://www.w3.org/2000/svg">
<g clip-path="url(#clip0_1_61)">
<path fill-rule="evenodd" clip-rule="evenodd" d="M20.0306 7.71938L14.7806 2.46937C14.6399 2.32876 14.449 2.24984 14.25 2.25H5.25C4.42157 2.25 3.75 2.92157 3.75 3.75V12C3.75 12.4142 4.08579 12.75 4.5 12.75C4.91421 12.75 5.25 12.4142 5.25 12V3.75H13.5V8.25C13.5 8.66421 13.8358 9 14.25 9H18.75V20.25H16.5C16.0858 20.25 15.75 20.5858 15.75 21C15.75 21.4142 16.0858 21.75 16.5 21.75H18.75C19.5784 21.75 20.25 21.0784 20.25 20.25V8.25C20.2502 8.05103 20.1712 7.86015 20.0306 7.71938V7.71938ZM15 4.81031L17.6897 7.5H15V4.81031ZM10.125 12C8.15696 12 6.38194 13.1833 5.625 15C3.76104 15 2.25 16.511 2.25 18.375C2.25 20.239 3.76104 21.75 5.625 21.75H10.125C12.8174 21.75 15 19.5674 15 16.875C15 14.1826 12.8174 12 10.125 12V12ZM10.125 20.25H5.625C4.65779 20.2516 3.84809 19.5172 3.75555 18.5544C3.66302 17.5916 4.31801 16.7164 5.26781 16.5338C5.25849 16.948 5.58672 17.2913 6.00094 17.3006C6.41515 17.3099 6.75849 16.9817 6.76781 16.5675C6.78538 16.3748 6.81861 16.1839 6.86719 15.9966C6.87776 15.9659 6.88622 15.9346 6.8925 15.9028C7.39279 14.2397 9.07361 13.2277 10.7776 13.5638C12.4815 13.8999 13.6522 15.4743 13.4835 17.2028C13.3148 18.9314 11.8618 20.2497 10.125 20.25V20.25Z" fill="#1C170D"/>
</g>
<defs>
<clipPath id="clip0_1_61">
<rect width="24" height="24" fill="white"/>
</clipPath>
</defs>
</svg>
