<svg width="24" height="24" viewBox="0 0 24 24" fill="none" xmlns="http://www.w3.org/2000/svg">
<g clip-path="url(#clip0_18_251)">
<path fill-rule="evenodd" clip-rule="evenodd" d="M16.5 19.5C16.5 19.9142 16.1642 20.25 15.75 20.25H8.25C7.96592 20.25 7.70622 20.0895 7.57918 19.8354C7.45214 19.5813 7.47955 19.2773 7.65 19.05L14.3944 10.0575C15.0493 9.20232 15.1954 8.06168 14.7773 7.06899C14.3592 6.07631 13.441 5.38397 12.3716 5.25506C11.3022 5.12614 10.2458 5.58043 9.60375 6.44531C9.4627 6.63287 9.34378 6.83609 9.24938 7.05094C9.14203 7.29645 8.91186 7.46604 8.64557 7.49582C8.37928 7.52561 8.11732 7.41108 7.95838 7.19536C7.79944 6.97964 7.76765 6.69551 7.875 6.45C8.56898 4.86143 10.1137 3.81275 11.8463 3.75404C13.5788 3.69534 15.191 4.63705 15.991 6.175C16.7909 7.71294 16.6362 9.57363 15.5934 10.9584L9.75 18.75H15.75C16.1642 18.75 16.5 19.0858 16.5 19.5Z" fill="#1C170D"/>
</g>
<defs>
<clipPath id="clip0_18_251">
<rect width="24" height="24" fill="white"/>
</clipPath>
</defs>
</svg>
